<?xml version="1.0" encoding="UTF-8"?>
<svg id="bluesky" xmlns="http://www.w3.org/2000/svg" viewBox="0 0 1442.46 1354.89">
  <defs>
    <style>
      .cls-1 {
        fill: #f8991d;
      }
    </style>
  </defs>
  <path class="cls-1" d="M313.38,149.49c162.38,122.33,337.07,370.32,401.18,503.4,64.12-133.08,238.81-381.07,401.19-503.4,117.19-88.24,307.04-156.54,307.04,60.75,0,43.38-24.79,364.56-39.35,416.72-50.55,181.25-234.8,227.49-398.69,199.51,286.47,48.91,359.34,210.92,201.96,372.93-298.9,307.7-429.61-77.2-463.08-175.82-9.65-28.39-8.27-29.04-18.15,0-33.47,98.62-164.17,483.53-463.07,175.82-157.39-162.01-84.52-324.02,201.95-372.93-163.89,27.98-348.14-18.26-398.69-199.51C31.13,574.81,6.33,253.62,6.33,210.24,6.33-7.05,196.21,61.25,313.38,149.49Z"/>
</svg>