<?xml version="1.0" encoding="UTF-8"?>
<svg xmlns="http://www.w3.org/2000/svg" viewBox="0 0 1442.46 1354.89">
  <defs>
    <style>
      .cls-1 {
        stroke: #fff;
      }

      .cls-1, .cls-2 {
        fill: none;
        stroke-miterlimit: 10;
        stroke-width: 9px;
      }

      .cls-3 {
        fill: #fff;
      }

      .cls-4 {
        fill: #f8991d;
      }

      .cls-2 {
        stroke: #f8991d;
      }
    </style>
  </defs>
  <g id="hikingadventureshover">
    <ellipse class="cls-1" cx="737.21" cy="696.27" rx="651.91" ry="639.16"/>
  </g>
  <g id="dogbeachvisithover">
    <ellipse class="cls-1" cx="755.11" cy="690.34" rx="651.91" ry="639.16"/>
    <g>
      <path class="cls-3" d="M1196.63,1162.12c-205.07,174.82-435.9,167.08-441.52,167.38-261.1,14.16-495.44-206.8-493.07-231.26.14-1.45,235.33-69.48,353.21,5.12,123.3,78.03,259.67,69.44,394.76,19.59,127.76-47.15,197.12,30.22,186.62,39.17Z"/>
      <path class="cls-3" d="M654.81,1010.47c-11.52,30.36-11.95,31.6-40.63,21.74-39.99-13.76-80.85-22.22-122.57-28.65-27.72-4.27-53.61-1.09-77.47,11.25-38.32,19.81-75.38,42.07-112.84,63.53-8.68,4.97-16.05,8.83-25.03-.43-7.65-7.89-7.76-13.06.56-20.24,19.29-16.65,38.13-33.83,56.93-51.05,14.58-13.35,12.96-28.72-3.78-38.99-14.16-8.69-28.61-16.94-42.42-26.15-4.79-3.19-9.47-8.14-11.39-13.33-.86-2.33,5.28-10.42,8.1-10.34,8.7.24,17.59,2.36,25.93,5.16,32.31,10.85,65.6,11.45,98.6,7.17,53.32-6.91,103.01,10.73,154.04,19.57,2.09.36,5.22,1.3,5.8,2.79,11.38,29.01,42.82,29.65,63.69,45.17,6.94,5.16,15.12,8.67,22.49,12.79Z"/>
      <path class="cls-3" d="M648.32,845.68c-7.44,23.66-12.32,48.17-38.62,64.61-38.04,23.79-74.15,11.09-111.3,2.61-3.2-.73-6.32-5.98-7.7-9.77-8.49-23.36-16.64-46.85-24.43-70.45-1.22-3.69-.01-8.17.07-12.28,4.05.65,9.66-.19,11.9,2.17,23.36,24.69,51.25,15.36,78.79,11.92,24.1-3.01,48.38-4.59,72.62-6.36,11.01-.81,18.08,4.07,18.68,17.56Z"/>
      <path class="cls-3" d="M329.16,977.74c-3.24,7.5-4.92,16.41-10.08,22.21-9.46,10.65-20.65,19.9-31.8,28.87-4.94,3.97-12.59,9.26-17.19,7.88-7.23-2.17-13.36-9.08-18.71-15.1-.7-.79,5.08-9.68,9.4-12.2,20.8-12.14,42.12-23.39,63.25-34.96,1.71,1.1,3.42,2.2,5.13,3.3Z"/>
      <path class="cls-3" d="M1031.7,306.38c204.43-125.46,353.98-73.94,360.81,126.88-102.17-66.16-204.76-121.47-327.54-24.29,47.35,5.96,85.73,9.86,123.75,15.97,18.67,3,37.05,9.08,54.92,15.54,211.06,76.32,250.95,252.68,87.87,423.55.25-95.54-10.55-182.96-66.63-256.88-57.06-75.21-135.03-112.17-227.38-111.21-181.87,1.89-308.79,128.76-371.1,372.41-50.44-109.17-84.36-212.93-37.03-321.67,53.43-122.74,166.04-146.93,285.98-152.13-71.96-76.52-202.3-46.11-300.3,69.24-8.75-73.85,38.14-165.32,110.95-203.18,109.87-57.12,209.08-24.47,305.69,45.76Z"/>
      <path class="cls-3" d="M686.05,1100.86c192.01-106.65,244.72-283.89,263.29-479.92,2.29-24.18,2.74-63.35,15.53-68.87,35.62-15.37,77.3-16.68,122.57-24.6-.63,179.3-9.76,344.05-55.48,504.86-3.22,11.31-10.23,27.51-19.04,30.35-101.37,32.64-202.61,69.06-312.19,44.85-3.03-.67-5.78-2.57-14.68-6.67Z"/>
    </g>
  </g>
  <g id="dogbeachvisit">
    <g>
      <ellipse class="cls-2" cx="750.07" cy="695.17" rx="651.91" ry="639.16"/>
      <path class="cls-4" d="M1191.59,1166.95c-205.07,174.82-435.9,167.08-441.52,167.38-261.1,14.16-495.44-206.8-493.07-231.26.14-1.45,235.33-69.48,353.21,5.12,123.3,78.03,259.67,69.44,394.76,19.59,127.76-47.15,197.12,30.22,186.62,39.17Z"/>
      <g>
        <path class="cls-4" d="M649.77,1015.3c-11.52,30.36-11.95,31.6-40.63,21.74-39.99-13.76-80.85-22.22-122.57-28.65-27.72-4.27-53.61-1.09-77.47,11.25-38.32,19.81-75.38,42.07-112.84,63.53-8.68,4.97-16.05,8.83-25.03-.43-7.65-7.89-7.76-13.06.56-20.24,19.29-16.65,38.13-33.83,56.93-51.05,14.58-13.35,12.96-28.72-3.78-38.99-14.16-8.69-28.61-16.94-42.42-26.15-4.79-3.19-9.47-8.14-11.39-13.33-.86-2.33,5.28-10.42,8.1-10.34,8.7.24,17.59,2.36,25.93,5.16,32.31,10.85,65.6,11.45,98.6,7.17,53.32-6.91,103.01,10.73,154.04,19.57,2.09.36,5.22,1.3,5.8,2.79,11.38,29.01,42.82,29.65,63.69,45.17,6.94,5.16,15.12,8.67,22.49,12.79Z"/>
        <path class="cls-4" d="M643.28,850.51c-7.44,23.66-12.32,48.17-38.62,64.61-38.04,23.79-74.15,11.09-111.3,2.61-3.2-.73-6.32-5.98-7.7-9.77-8.49-23.36-16.64-46.85-24.43-70.45-1.22-3.69-.01-8.17.07-12.28,4.05.65,9.66-.19,11.9,2.17,23.36,24.69,51.25,15.36,78.79,11.92,24.1-3.01,48.38-4.59,72.62-6.36,11.01-.81,18.08,4.07,18.68,17.56Z"/>
        <path class="cls-4" d="M324.12,982.57c-3.24,7.5-4.92,16.41-10.08,22.21-9.46,10.65-20.65,19.9-31.8,28.87-4.94,3.97-12.59,9.26-17.19,7.88-7.23-2.17-13.36-9.08-18.71-15.1-.7-.79,5.08-9.68,9.4-12.2,20.8-12.14,42.12-23.39,63.25-34.96,1.71,1.1,3.42,2.2,5.13,3.3Z"/>
      </g>
      <g>
        <path class="cls-4" d="M1026.66,311.21c204.43-125.46,353.98-73.94,360.81,126.88-102.17-66.16-204.76-121.47-327.54-24.29,47.35,5.96,85.73,9.86,123.75,15.97,18.67,3,37.05,9.08,54.92,15.54,211.06,76.32,250.95,252.68,87.87,423.55.25-95.54-10.55-182.96-66.63-256.88-57.06-75.21-135.03-112.17-227.38-111.21-181.87,1.89-308.79,128.76-371.1,372.41-50.44-109.17-84.36-212.93-37.03-321.67,53.43-122.74,166.04-146.93,285.98-152.13-71.96-76.52-202.3-46.11-300.3,69.24-8.75-73.85,38.14-165.32,110.95-203.18,109.87-57.12,209.08-24.47,305.69,45.76Z"/>
        <path class="cls-4" d="M681.01,1105.69c192.01-106.65,244.72-283.89,263.29-479.92,2.29-24.18,2.74-63.35,15.53-68.87,35.62-15.37,77.3-16.68,122.57-24.6-.63,179.3-9.76,344.05-55.48,504.86-3.22,11.31-10.23,27.51-19.04,30.35-101.37,32.64-202.61,69.06-312.19,44.85-3.03-.67-5.78-2.57-14.68-6.67Z"/>
      </g>
    </g>
  </g>
</svg>