<?xml version="1.0" encoding="UTF-8"?>
<svg xmlns="http://www.w3.org/2000/svg" viewBox="0 0 1442.46 1354.89">
  <defs>
    <style>
      .cls-1 {
        fill: none;
        stroke: #fff;
        stroke-miterlimit: 10;
        stroke-width: 9px;
      }

      .cls-2 {
        fill: #fff;
      }
    </style>
  </defs>
  <g id="hikingadventureshover">
    <ellipse class="cls-1" cx="727.18" cy="703" rx="651.91" ry="639.16"/>
  </g>
  <g id="dogparkvisithover">
    <ellipse class="cls-1" cx="726.59" cy="699.65" rx="651.91" ry="639.16"/>
    <g>
      <g>
        <g>
          <path class="cls-2" d="M542.13,607.91c21.33-4.1,43.51-8.98,65.91-12.52,38.48-6.08,63.31,8.58,61.73,49.74-1.83,47.85-6.51,95.7-12.35,143.25-4.68,38.11-24.89,75.26,8.28,112.46,7.36,8.25-3.65,32.88-6.2,49.96-14.37-3.24-29.92-4.01-42.91-10.17-52.07-24.71-61.95-66.22-49.07-119.75,8.21-34.12,8.55-70.13,14.14-120.91-46.19,30.53-80.5,49.7-110.08,74.52-11.4,9.57-15.31,31.64-17,48.57-8.21,82.4-15.77,164.93-20.38,247.59-.88,15.79,11.98,32.66,19.6,48.51,6.53,13.59,14.63,26.43,29.26,52.44-44.65,0-78.09,5.64-107.77-2.48-14-3.83-29.71-34.24-29.36-52.31,2.17-112.69,10.03-225.25,13.29-337.94,2.34-80.9.46-161.92.46-256.07-27.36,33.96-49.26,60.61-70.57,87.73-19.45,24.75-36.01,52.35-58.42,73.95-10,9.64-31.21,7.63-47.33,10.91-1.85-16.51-11.63-39.08-4.35-48.61,81.03-106.03,143.9-228.63,264.83-299.27,54.39-31.77,108.06-65.01,164.2-93.36,14.88-7.51,37.67.64,56.83,1.6-7.7,17.29-10.82,40.51-24,50.72-35.24,27.26-73.93,50.49-112.93,72.3-28.98,16.21-38.4,31.41-25.67,66.73,18.24,50.64,26.33,104.93,39.87,162.41Z"/>
          <path class="cls-2" d="M1178.21,865.4c27.41-9.73,61.73-21.92,98.12-34.85-6.75,42.96-33.27,67.5-70.42,81.62-56.53,21.49-82.94,56.63-84.85,118.5-.92,29.79,3.91,60.43-1.68,89.16-3.23,16.61-19.3,35.33-34.69,43.52-12.51,6.65-32.6-.98-49.33-2.27,5.06-14.5,7.77-30.44,15.65-43.21,18.09-29.32,10.94-77.72-14.21-102.83-15.91-15.88-39.2-36.15-38.97-54.19.67-51.87-35.54-80.51-56.52-119.6-24.99-46.58-37.38-101.8-45.74-154.78-5.46-34.59-16.64-46.05-49.35-43.56-23.06,1.76-47.1,3.87-69.32-.77-17.08-3.57-33.78-15.47-47.11-27.56-6.22-5.64-8.53-27.44-4.83-29.83,9.52-6.14,27.13-11.49,34.92-6.62,44.44,27.76,87.72,10.35,128.86-3.27,63.16-20.92,80.61-77.96,46.77-135.66-8.2-13.98-18.48-28.65-20.19-43.85-1.1-9.79,9.44-26.33,18.87-30.46,11.33-4.96,27.93-2.77,40.64,1.32,26.95,8.67,54.03,18.41,78.88,31.77,26.81,14.41,51.12,33.47,80.75,53.33,14.75-4.08,36.2-10.01,62.36-17.25-4.43,48.36-34.25,65.32-65.55,85.03-19.26,12.13-42.71,36.28-43.28,55.65-1.31,45.07,4.02,92.49,17.92,135.29,16.5,50.8,44.81,97.77,72.29,155.37Z"/>
          <path class="cls-2" d="M295.92,182.4c43.11-.66,102.28,67.77,101.4,117.26-.65,36.33-33.15,69.51-69.81,71.28-41.8,2.01-101.3-67.89-101.1-118.77.14-37.11,32.12-69.2,69.52-69.77Z"/>
        </g>
        <path class="cls-2" d="M628.03,104.03c62.78,2.28,150.19,75.3,157.85,126.2,1.76,11.69-9.34,36.26-13.48,36.03-19.3-1.07-48.18-2.92-55.36-15.19-19.12-32.64-43.09-48.68-78.5-60.91-17.21-5.95-27.14-39.79-34.41-62.88-1.84-5.83,19.16-18.86,23.9-23.25Z"/>
      </g>
      <path class="cls-2" d="M1125.93,1173.15c73.42-11.17-133.23,161.76-400.6,161.76s-483.57-168.49-402.89-163.44c134.32,8.39,123.92,13.79,396.7,8.4,255.5-5.04,329.46,5.04,406.79-6.72Z"/>
    </g>
  </g>
</svg>