<?xml version="1.0" encoding="UTF-8"?>
<svg id="dropinvisithover" xmlns="http://www.w3.org/2000/svg" viewBox="0 0 1442.46 1354.89">
  <defs>
    <style>
      .cls-1 {
        fill: none;
        stroke: #fff;
        stroke-miterlimit: 10;
        stroke-width: 9px;
      }

      .cls-2 {
        fill: #fff;
      }
    </style>
  </defs>
  <g>
    <g>
      <path class="cls-2" d="M1087.17,1056.78c-31.65,4.73-60.14,12.29-88.66,12.39-34.28.12-57.53,6.4-77.52,40.23-36.38,61.58-94.53,78.01-172.45,49.5,24.14-17.55,44.27-27.74,58.08-43.47,14.09-16.05,21.97-37.54,37.98-66.42-46.62,0-81.98,3.46-116.14-1.42-17.81-2.54-40.89-16.42-47.78-31.49-5.24-11.44,8.51-34.86,18.84-49.37,15.11-21.21,38.9-36.83,51.5-59.08,22.15-39.12,48.69-66.13,96.71-56.85,41.67,8.05,65.69,48.73,65.93,119.78-25.83-8.41-48.35-15.18-70.43-23.17-11.51-4.17-22.24-10.49-33.32-15.84-2.97,14.25-11.4,30.06-7.88,42.46,10.16,35.75,65.45,53.85,114.94,39.04,42.34-12.67,60.42-40.86,48.36-85.18-3.7-13.59-7.88-27.06-.82-32.19,40.81-46.25,79.91-94.2,123.27-137.91,16.9-17.03,43.19-33.79,65.57-34.29,37.06-.83,51.27-17.88,44.89-47.52-12.67-58.87-31.47-116.41-45.87-167.82,72.83,18.99,117.83,92.42,99.92,196.69-8.96,52.17-6.12,98.29,9.66,149.19,22.69,73.19,29.81,149.11-20.65,218.89-9.76,13.5.19,40.26-8.16,56.03-9.6,18.16-27.35,34.86-45.61,44.49-10.33,5.45-28.81-4.57-43.62-7.62,6.79-14.24,16.32-27.86,19.72-42.87,4.83-21.35,12.44-46.27,5.84-65.11-12.34-35.22-33.35-67.57-52.22-100.26-6.28-10.88-17.08-19.15-25.81-28.62-7.56,11.96-21.74,24.14-21.34,35.82.88,26.08,9.03,51.91,17.05,91.96Z"/>
      <path class="cls-2" d="M442.36,1163.85c-13.02,6.64-16.06,9.5-19.2,9.61-171.57,6.09-141.68,8.25-143.33-127.36-.77-63.77,3.54-127.83-1.35-191.23-3.43-44.45-23.26-87.58-27.17-132.05-4.69-53.35-10.66-110.26,2.71-160.64,19.32-72.82,52.79-142.49,85.96-210.72,12.12-24.92,37.23-49.16,62.4-60.93,52.24-24.44,95.71,6.27,98.69,63.42.74,14.13,2.04,28.64-.17,42.46-10.74,67,12.97,119.15,61.58,165.06,11.84,11.18,8.98,37.94,12.88,57.53-18.97-.8-40.64,4.07-56.4-3.46-50.74-24.23-95.44-55.07-93.49-122.16.25-8.62-17.33-17.76-26.65-26.65-6.46,10.79-18.39,21.51-18.55,32.39-2.65,179.67-3.47,359.36-5.64,539.03-.4,33.17-.05,61.47,37.67,78.23,14.06,6.25,20.04,30.69,30.08,47.47Z"/>
      <path class="cls-2" d="M654.82,628.8c-28.02-47.47-44.02-86.08-70.23-115.63-24.74-27.89-27.44-55.31-10-80.42,9.69-13.95,36.92-21.96,56.25-21.96,118.07-.01,88.41-17.58,122.66,91.22,39.32,124.89,20.53,143.33-98.67,126.79Z"/>
      <path class="cls-2" d="M545.55,252.22c-42.75.63-74.71-29.43-75.96-71.42-1.75-59.22,55.5-129.66,104.57-128.65,39.67.81,73.92,35.68,74.22,75.56.39,53.23-57.93,123.86-102.83,124.52Z"/>
      <path class="cls-2" d="M837.34,62.31c-7.96,39.95-10.82,70.38-21.08,98.07-4.31,11.64-24.26,17.48-37.1,25.96-5.85-12.84-17.54-26.24-16.38-38.42,2.8-29.5,9.24-59.27,19.08-87.22,4.19-11.9,20.52-19.52,31.34-29.08,9.48,12.05,18.96,24.09,24.14,30.69Z"/>
      <path class="cls-2" d="M1072.17,193.65c-31.19,26.22-62.38,52.44-93.58,78.66-7.35-13.8-24.36-34.91-20.4-40.16,18.93-25.03,41.77-48.21,67.16-66.61,8.44-6.11,28.62,3.99,43.43,6.68,1.13,7.14,2.26,14.28,3.38,21.43Z"/>
      <path class="cls-2" d="M1090.59,460.08c-4.1-13.61-11.58-27.33-11.19-40.81.29-9.87,8.84-24.94,17.31-28.13,26.2-9.87,53.83-17.54,81.54-21.01,10.17-1.27,22.11,11.58,33.24,18-6.65,10.77-10.93,27.31-20.41,31.21-25.82,10.61-53.84,15.87-80.99,23.25-6.5,5.83-13,11.66-19.51,17.5Z"/>
    </g>
    <path class="cls-2" d="M1141.03,1172.65c73.42-11.17-133.23,161.76-400.6,161.76s-483.57-168.49-402.89-163.44c134.32,8.39,123.92,13.79,396.7,8.4,255.5-5.04,329.46,5.04,406.79-6.72Z"/>
  </g>
  <ellipse class="cls-1" cx="736.73" cy="697.12" rx="651.91" ry="639.16"/>
</svg>