<?xml version="1.0" encoding="UTF-8"?>
<svg id="hikingadventureshover" xmlns="http://www.w3.org/2000/svg" viewBox="0 0 1442.46 1354.89">
  <defs>
    <style>
      .cls-1 {
        fill: none;
        stroke: #fff;
        stroke-miterlimit: 10;
        stroke-width: 9px;
      }

      .cls-2 {
        fill: #fff;
      }
    </style>
  </defs>
  <ellipse class="cls-1" cx="730.22" cy="702.46" rx="651.91" ry="639.16"/>
  <g>
    <ellipse class="cls-1" cx="730.22" cy="702.46" rx="651.91" ry="639.16"/>
    <g>
      <path class="cls-2" d="M722.06,1146.48c-114.19,35.62-119.34,34.22-168.83-48.17-66.94-111.44-135.12-222.23-198.21-335.82-17.38-31.29-26.57-71.82-25.58-107.72,2.57-93.42,13.3-186.6,19.86-279.94,2.65-37.7,14.33-68.88,54.19-79.26,38.9-10.13,64,13.05,79.91,43.6,34.13,65.53,80.6,108.71,159.28,112.72,14.17.72,27.03,27.13,40.5,41.68-15.93,9.42-32.61,27.93-47.65,26.68-62.27-5.16-130.48,3.97-175.71-57.49-4.88-6.63-23.65-3.04-35.98-4.19,1.64,12.25-1.16,31.23,5.61,35.69,55.89,36.82,46.07,89.08,40.64,143.17-2.61,26.01,1.92,55.05,11.38,79.57,43.67,113.16,90.72,225.01,135.33,337.82,10.17,25.72,20.09,44.26,52.71,48.12,16.11,1.9,29.85,23.83,52.55,43.55Z"/>
      <path class="cls-2" d="M506.54,73.06c27.7,44.98,12.92,138.43-25.35,160.32-33.52,19.17-80.35,7.57-100.39-24.89-27.72-44.88-12.56-135.91,26.52-159.28,34.2-20.45,78.49-9.8,99.21,23.85Z"/>
      <path class="cls-2" d="M327.29,854.68c33.39,54.28,53.08,104.7,18.5,168.09-16.22,29.72-8.92,71.6-16.28,107.14-3.37,16.27-16.39,30.55-25.04,45.73-11.56-7.97-26.11-13.68-34.16-24.31-31.43-41.47-39-81.38-8.73-132.1,29.46-49.37,43.81-107.75,65.7-164.54Z"/>
      <path class="cls-2" d="M721.5,1197.13c-5.67-256.63-11.35-542.19-17.02-798.82,3.91.65,20.51-.64,24.41,0,5.7,26.45,3.16,88.86,3.72,109.41,6.14,224.8,11.2,448.4,15.11,670.6.36,20.61-9.18,29.35-14.12,43.61-4.03-8.27-8.06-16.53-12.09-24.8Z"/>
      <path class="cls-2" d="M1130.13,1175.19c73.42-11.17-133.23,161.76-400.6,161.76s-483.57-168.49-402.89-163.44c134.32,8.39,123.92,13.79,396.7,8.4,255.5-5.04,329.46,5.04,406.79-6.72Z"/>
      <path class="cls-2" d="M350.72,388.18c27.7,44.98,12.92,138.43-25.35,160.32-33.52,19.17-80.35,7.57-100.39-24.89-27.72-44.88-12.56-135.91,26.52-159.28,34.2-20.45,78.49-9.8,99.21,23.85Z"/>
      <g>
        <path class="cls-2" d="M1001.29,1172.69c-74.54,0-148.45.18-222.37-.32-6.19-.04-12.93-3.74-18.43-7.28-34-21.89-67.86-44.01-101.47-66.5-14.39-9.63-25.01-21.48-14.1-44.99,36.94,9.71,74.35,19.53,114.42,30.06,15.01-54.04,29.27-105.77,43.77-157.45,14.25-50.82,28.74-101.57,44.44-157.02,56.69,33.23,111.09,64.88,165.08,97.2,3.89,2.33,7.36,9.71,6.89,14.31-7.38,71.12,28.69,130.29,52.37,192.82,11.44,30.22,23.69,60.13,35.73,90.58-53.06,12.55-61.22,9.05-88.66-28.53-7.38-10.1-20.03-16.2-29.39-25.05-6.32-5.97-12.15-12.97-16.41-20.52-12.21-21.62-20.42-46.29-35.87-65.12-24.02-29.27-70.74-27.7-89.49,2.24,64.59-5.54,88.33,36.54,106.52,86.62,3.15,8.67,13.48,17.2,22.49,20.75,17.1,6.74,28.67,14.68,24.48,38.21Z"/>
        <path class="cls-2" d="M859.69,524.13c12.35,14.45,23.39,23.91,30,35.83,13.45,24.27,33.84,32.94,60.07,37.74,53.86,9.84,107.4,21.82,160.49,35.24,38.98,9.85,43.13,26.34,20.97,60.6-27.06,41.83-61.31,71.31-116.28,68.79v59.25c-55.29-32.36-106.65-62.17-157.59-92.68-3.98-2.38-7.17-9.54-7.2-14.51-.44-56.84-.32-113.68.14-170.52.03-4.22,3.86-8.41,9.4-19.74Z"/>
      </g>
      <path class="cls-2" d="M549.31,54.84c-5.32-1.12-21.93,10.49-35.02,4.48-12.46-5.72-6.64-23.61-22.97-37.82-1.73-1.5-7.94-8.14-24.37-9.81-22.13-2.24-68.08,11.21-104.22,30.54-17.19,9.19-11.27,15.4-1.4,69.76.27,1.48.06-2.01,0,0-.28,10.07-17.65,13.73-33.62,16.81-7.37,1.42,4.83,17.65,15.13,21.29,13.19,4.67,25.68.34,29.98-1.12,70.37-23.84,126.77-13.98,163.05-61.07,10.47-13.59,18.66-31.96,13.45-33.06Z"/>
    </g>
  </g>
</svg>