<?xml version="1.0" encoding="UTF-8"?>
<svg id="inhomedogsitting" xmlns="http://www.w3.org/2000/svg" viewBox="0 0 1442.46 1354.89">
  <defs>
    <style>
      .cls-1 {
        fill: none;
        stroke: #fff;
        stroke-miterlimit: 10;
        stroke-width: 9px;
      }

      .cls-2 {
        fill: #fff;
      }
    </style>
  </defs>
  <ellipse class="cls-1" cx="709.13" cy="685.38" rx="651.91" ry="639.16"/>
  <path class="cls-2" d="M454.28,737.77c-5.31.77-10.63,1.53-18.17,2.62,1.77-3.86,3.41-8.83,4.09-8.7,5.04.95,9.89,2.91,14.8,4.55-.24.51-.48,1.02-.72,1.53Z"/>
  <ellipse class="cls-1" cx="709.04" cy="685.19" rx="651.91" ry="639.16"/>
  <g>
    <path class="cls-2" d="M1196.64,339.94c0,29.39-.39,58.78.19,88.16.24,12.16,2.02,24.37,4.19,36.36.79,4.35,4.05,8.87,7.39,12.05,38.26,36.41,77.27,72.05,114.9,109.09,12.46,12.27,24.45,26.69,31.5,42.43,12.93,28.87.63,62.67-25.47,80.4-26,17.66-60.54,15.73-84.42-6.05-30.75-28.04-60.81-56.85-91.06-85.44-138.03-130.45-276.02-260.94-414.03-391.41-20.22-19.12-39.79-19.08-59.96-.06-167.24,157.6-334.53,315.15-501.72,472.8-21.5,20.27-46.07,27.73-74.2,17.57-26.81-9.68-41.71-29.84-44.92-58.02-2.25-19.77,3.49-37.78,17.24-52.13,19.57-20.43,39.66-40.4,60.24-59.82C317.39,375.19,498.43,204.67,679.4,34.08c20.67-19.48,39.97-19.54,60.77.04,65.71,61.86,131.35,123.79,197.15,185.55,5.03,4.72,10.88,8.74,16.84,12.24,4.35,2.55,9.51,2.28,10.51-4.03,1.86-11.82,10.33-16.06,20.23-18.38,6.05-1.42,12.42-2.05,18.65-2.07,51.08-.16,102.16-.14,153.24-.07,26.04.04,39.64,13.37,39.77,39.15.16,31.14.04,62.27.04,93.41h.04Z"/>
    <path class="cls-2" d="M1114.45,1171.34c73.42-11.17-133.23,161.76-400.6,161.76s-483.57-168.49-402.89-163.44c134.32,8.39,123.92,13.79,396.7,8.4,255.5-5.04,329.46,5.04,406.79-6.72Z"/>
    <g>
      <path class="cls-2" d="M475.71,885.36v122.44c44.86-27.97,66.13-65.56,88.78-102.93,27.31-45.06-1.6-84.9-11.67-133.78,14.09,7.37,26.13,9.59,29.98,16.43,11.62,20.66,28.03,17.29,47.03,16.94,15.84-.29,31.73,8.28,47.8,12.09,16.94,4.02,34.11,7.05,53.87,11.06,5.27,21.18-5.77,34.84-25.24,44.16-16.85,8.07-40.94,11.72-48.69,24.99-7.51,12.86,2.05,35.48,3.55,53.86,3.38,41.39-.81,79.36-24,117.46-9.56,15.7,5.32,46.97,10.77,70.78,2.06,9.01,8.89,16.92,13.55,25.33-8.23,2.6-17.26,8.63-24.49,6.94-9.11-2.13-18.88-9.02-24.41-16.71-5.05-7.02-4.74-17.85-6.93-26.96-2.17-9.02-4.53-17.99-7.22-28.64-6.38,1.09-12.37.97-17.32,3.17-12.33,5.47-17.26.82-23.38-10.43-5.73-10.54-16.36-18.9-26.21-26.43-3.05-2.33-10.59,1.21-16.07,2.07,1,5.26.22,13.42,3.29,15.31,22.38,13.79,23.82,35.75,23.97,55.18,11.5,9.42,21.1,17.29,33.99,27.85-69.77,20.11-103.39-2-110.66-64.55-1.52-13.1-5.59-26.69-11.75-38.33-22.04-41.63-24.72-85.14-11.52-128.94,5.57-18.48,18.97-34.6,28.81-51.79,1.39,1.14,2.77,2.28,4.16,3.41Z"/>
      <path class="cls-2" d="M888.36,1171.98c-29.87.04-59.74.33-89.61-.05-31.67-.4-53.37-17.37-59.49-45.66-7.38-34.16,3.67-63.29,32.48-75.73,16.83-7.27,35.9-10.43,54.31-12.68,16.59-2.03,24.46-8.79,24.13-25.59-.17-8.5,2.01-17.1,1.37-25.52-1.27-16.5,7.05-19.69,21.72-24.08,20.45-6.11,39.17-18.59,57.73-29.84,3.53-2.14,2.85-11.23,4.11-17.12-6.1-.06-15.15-2.76-17.84.24-28.11,31.35-65.08,23.89-100.35,24.7-17.58.4-28.32-6.51-28.15-24.83.18-18.58,13.33-21.59,28.39-21.23,3.41.08,6.9-.47,10.23.07,28.77,4.68,48.52-5.82,61.12-32.72,9.39-20.06,25.41-31.78,49.45-27.66,22.06,3.78,36.48,15.56,36.73,38.79.57,52.9,1.1,105.85-.5,158.72-1.03,33.99-30.13,58.82-67.62,60.38-23,.96-46.14-.78-69.08.72-7.43.49-14.44,7.44-21.64,11.43,7.49,3.88,14.86,10.82,22.47,11.1,34.09,1.22,68.29,1.44,102.38.26,30.61-1.06,43.26,23.57,61.92,39.86-4.8,5.46-9.41,15.43-14.44,15.65-33.22,1.41-66.54.73-99.82.77Z"/>
      <path class="cls-2" d="M760.02,684.18c25.34,10.56,44.57,6.14,65.18-7.13,23.71-15.26,55.73-4.15,67.16,20.88,15.89,34.8,29.76,70.52,47.96,114.15-35.7-2.37-66.82-1.06-95.97-8.02-11.95-2.85-19.21-23.93-29.39-36.05-7.71-9.18-15.28-19.89-25.39-25.35-22.3-12.06-31.52-29.21-29.56-58.47Z"/>
      <path class="cls-2" d="M687.92,977.48c-1.24-11.9-2.28-21.85-3.44-33.02,6.81-2.28,12.93-5.44,19.33-6.25,13.64-1.71,24.1-5.07,25.99-21.72.47-4.17,9.41-7.39,14.46-11.04,3.03,5.03,8.2,9.83,8.76,15.12,4.29,40.59-5.7,49.38-65.11,56.91Z"/>
      <path class="cls-2" d="M665.24,601.95c6.06,1.42,10.12,1.31,10.68,2.65,8.79,21.25,17.13,42.68,25.57,64.08-7.06,1.39-19.49,5.46-20.34,3.76-8.97-17.98-16.77-36.64-23.13-55.71-1.29-3.86,4.84-10.19,7.23-14.78Z"/>
      <path class="cls-2" d="M633.25,729.09c-6.4,2.39-15.1,8.69-18.79,6.51-15.93-9.42-31.03-20.63-44.73-33.06-2.05-1.86,4.92-13.67,7.72-20.88,19.12,12.63,38.23,25.26,57.35,37.9-.51,3.18-1.03,6.36-1.54,9.54Z"/>
    </g>
  </g>
</svg>