<?xml version="1.0" encoding="UTF-8"?>
<svg id="neighborhoodwalks" xmlns="http://www.w3.org/2000/svg" viewBox="0 0 1442.46 1354.89">
  <defs>
    <style>
      .cls-1 {
        fill: none;
        stroke: #fff;
        stroke-miterlimit: 10;
        stroke-width: 9px;
      }

      .cls-2 {
        fill: #fff;
      }
    </style>
  </defs>
  <ellipse class="cls-1" cx="721.1" cy="703.65" rx="651.91" ry="639.16"/>
  <ellipse class="cls-1" cx="721.1" cy="703.65" rx="651.91" ry="639.16"/>
  <g>
    <path class="cls-2" d="M911.85,1023.71c-6.32,10.77-23.53,31.29-30.31,54.81-4.35,15.09,4.79,35.36,11.37,51.91,5.73,14.41,16.38,26.86,24.85,40.17-20.72,4.52-42.27,14.54-61.87,11.6-12.95-1.94-31.08-21.33-33.09-34.95-7.35-49.61-8.83-100.09-12.7-150.23-.78-10.14-2.31-20.23-3.36-29.2-124.94-28.19-163.58-109.56-96.57-183.02,22.96,27.59,44.68,57.54,70.97,82.71,6.94,6.64,34.45,4.23,41.47-3.75,34.37-39.04,75.88-43.03,123.24-36.51,38.87,5.35,78.35,7.96,117.6,8.53,82.6,1.2,147.52,88.4,112.63,162.95-27.25,58.22-50.22,108.86,8.48,159.58,2.5,2.16.32,9.74.32,14.59-73.09,30.37-93.26,17.44-93.19-59.12.03-27.36,0-54.72,0-71.87-61.67-6.24-116.46-11.79-179.86-18.21Z"/>
    <path class="cls-2" d="M1145.32,642.85c9.25,6.71,23.99,11.68,27.56,20.95,23.1,59.92,78.11,87.4,122.16,126.3,8.37,7.39,14.87,26.04,11.37,35.45-4.53,12.17-18.73,26.73-30.91,29.06-65.48,12.52-117.66-19.34-165.33-58.43-6.83-5.6-6.01-25.76-2.71-37.49,10.45-37.14,23.76-73.48,37.86-115.82Z"/>
    <g>
      <path class="cls-2" d="M601.87,1175.6c-117.92,20.07-122.84,18-160.9-70.26-51.48-119.37-104.26-238.27-151.63-359.26-13.05-33.33-16.75-74.72-10.98-110.17,15-92.24,38.08-183.16,57.03-274.79,7.65-37.01,23.39-66.35,64.28-71.32,39.9-4.85,61.69,21.47,73.38,53.87,25.09,69.5,65.38,118.49,142.82,132.96,13.95,2.61,23.17,30.49,34.58,46.71-17.04,7.21-36.04,23.33-50.78,20.09-61.03-13.43-129.84-13.47-166.47-80.42-3.95-7.22-23.04-6.17-35.1-8.95-.01,12.36-5.31,30.8.8,36.12,50.48,43.95,33.78,94.43,21.18,147.31-6.06,25.43-5.45,54.82.66,80.37,28.18,117.98,59.9,235.1,89.06,352.85,6.65,26.85,14.01,46.54,45.82,54.72,15.71,4.04,26.4,27.6,46.27,50.17Z"/>
      <path class="cls-2" d="M551.13,116.11c.68,52.82-59.98,125.43-104.06,124.57-38.61-.76-72.83-34.75-73.37-72.89-.75-52.75,59-123.08,104.53-123.07,39.85,0,72.39,31.88,72.89,71.4Z"/>
      <path class="cls-2" d="M280.6,860.28c33.39,54.28,53.08,104.7,18.5,168.09-16.22,29.72-8.92,71.6-16.28,107.14-3.37,16.27-16.39,30.55-25.04,45.73-11.56-7.97-26.11-13.68-34.16-24.31-31.43-41.47-39-81.38-8.73-132.1,29.46-49.37,43.81-107.75,65.7-164.54Z"/>
      <path class="cls-2" d="M1039.32,794.09c-119.47-71.47-238.95-142.95-358.42-214.42.69-5.43,1.38-10.85,2.07-16.28,12.82,0,28.46-4.83,38.04.74,104.77,60.93,208.88,123.03,312.22,186.36,9.58,5.87,12.68,22.33,18.8,33.88-4.23,3.24-8.46,6.49-12.7,9.73Z"/>
    </g>
    <path class="cls-2" d="M1121.7,1181.05c73.42-11.17-133.23,161.76-400.6,161.76s-483.57-168.49-402.89-163.44c134.32,8.39,123.92,13.79,396.7,8.4,255.5-5.04,329.46,5.04,406.79-6.72Z"/>
  </g>
</svg>