<?xml version="1.0" encoding="UTF-8"?>
<svg id="Layer_1" xmlns="http://www.w3.org/2000/svg" viewBox="0 0 565.97 561.92">
  <defs>
    <style>
      .cls-1 {
        stroke: #cb9831;
        stroke-miterlimit: 10;
      }

      .cls-1, .cls-2 {
        fill: #cb9831;
      }
    </style>
  </defs>
  <path class="cls-2" d="M306.34,511.33c1.58.33,3,.7,4.24,1.11,1.25.41,1.87.68,1.87.8-4.3-.05-7.8,1.33-10.52,4.13-2.72,2.81-4.95,6.58-6.7,11.31-1.75,4.73-3.94,11.77-6.55,21.11-.21.73,5.68,5.62,12.57,8.19,2.84,1.06,7.51,1.04,9.53,1.07,0,0-.09,1.68-.09,1.83,0,.23-14.08,1.33-15.06.95-.09-.03-4.13-6.93-6.37-8.12-1.16-.62-2.08,1.5-2.1,1.55-.77,2.74-1.23,4.39-1.38,4.95-.57.24-1.39.46-2.48.65-1.09.19-2.09.29-2.98.27-4.64-7.19-9.6-14.8-14.88-22.84-1.51-2.22-2.86-4.27-4.05-6.15-1.19-1.88-2.29-3.6-3.31-5.14-1.32,4.01-2.42,7.63-3.3,10.88-.88,3.25-1.88,7.19-2.99,11.82-1.6,6.45-2.34,9.2-2.58,10.23l-4.34-.28c-1.42-.63-24.84-3.92-24.7-4.9.08-.58.6-1.17.7-2.89.09-1.53,0-1,.14-1.73.1-.53-.22-3.2.89-2.94,1.59.37,8.05,1.74,10.97,1.78,12.65.15,14.05-6.01,15.31-9.57,1.43-3.97,2.73-7.7,3.9-11.22,1.17-3.51,1.76-5.54,1.77-6.08,0-.33-.18-.57-.57-.72-.39-.15-1.03-.23-1.92-.24l-2.85.03c-1.45.07-2.46.09-3.02.09-.89-.01-1.49-.1-1.79-.27-.3-.17-.45-.52-.44-1.06.02-1,.27-1.93.73-2.79.83.3,1.9.54,3.21.72,1.31.18,2.57.28,3.8.3,2.34.03,4.81-.29,7.39-.97.28,0,.55.1.83.29.27.19.52.43.74.72l6.14,9.6c4.2,6.61,9.48,14.85,15.84,24.72,3.58-12.48,6.22-21.31,7.93-26.48,1.71-5.16,3.51-9,5.41-11.51,1.9-2.51,4.24-3.74,7.03-3.71,1.11.01,2.46.19,4.05.52Z"/>
  <g>
    <path class="cls-1" d="M491.92,460.65c62.23-72.45,81.8-170.25,54.13-259.31-21.83-70.26-69.72-127.81-134.83-162.05C346.09,5.05,271.54-1.79,201.28,20.04,120.16,45.25,56.17,105.26,25.74,184.68c-22.3,58.19-24.29,120.48-5.76,180.13,14.6,46.97,41.45,87.17,77.66,120.05,35.16,31.92,78.21,52.36,124.51,62.89l-1.55,6.83c-47.47-10.8-91.61-31.81-127.66-64.54-37.13-33.71-64.67-74.99-79.64-123.16C3.73,336.09-.51,304.28.7,272.34c1.17-30.87,7.4-61.2,18.5-90.17,14.96-39.04,38.81-74.88,68.96-103.65,31.63-30.18,68.99-52.1,111.04-65.17,72.04-22.39,148.49-15.38,215.27,19.73,66.77,35.11,115.87,94.13,138.26,166.17,27.97,90,9.13,185.3-48.9,256.97-.58.72-6.78,8.29-7.51,8.94-.26.23-5.05-3.77-4.4-4.52Z"/>
    <g>
      <path class="cls-1" d="M86.91,290.65c-.65-.35-1.09-1.24-1.32-2.67-.72-4.46.07-20.26,2.38-47.38.68-8.81,1.27-17.11,1.75-24.88.48-7.77.58-12.6.27-14.47-.14-.89-.44-1.46-.89-1.71-.45-.25-1.21-.28-2.29-.11-1.07.17-4.06.93-8.98,2.27-7.1,1.97-11.83,3.52-14.27,3.54-5.14.05-9.84-1.61-9.84-1.61-11.15-4.24-26.06-25.24-26.26-26.49-.32-1.96,7.88-15.18,10.35-20.19.14,3.44-10.65,33.48,25.85,41.19,1.62.34,4.09-.18,7.31-.7,6.07-.98,14.11-2.83,24.12-5.54,8.43-2.28,14.16-3.66,17.2-4.15,9.11-1.47,16.63-.58,22.56,2.68,5.93,3.26,9.58,9.08,10.93,17.47.92,5.72.48,11.19-1.33,16.43-1.81,5.24-5.18,9.75-10.12,13.52-4.93,3.78-11.42,6.31-19.45,7.61-4.29.69-7.66.8-10.12.33-2.46-.47-3.82-1.51-4.08-3.12-.16-.98.07-1.8.7-2.45,1.13.19,2.88.25,5.25.18,2.37-.06,4.72-.28,7.04-.66,5.63-.91,10.45-2.81,14.47-5.7,4.02-2.89,6.9-6.47,8.64-10.74,1.74-4.27,2.21-8.9,1.4-13.9-1.05-6.52-3.95-10.98-8.69-13.37-4.74-2.4-11.44-2.89-20.1-1.5-4.38.71-7.46,1.6-9.26,2.66-1.8,1.07-2.83,2.5-3.09,4.28-.5,2.56-1.16,10.24-1.98,23.06-.82,12.82-1.42,25.4-1.81,37.74-.39,12.34-.3,20.25.26,23.73.22,1.34.59,2.52,1.12,3.53-1.37.59-2.95,1.03-4.74,1.31-1.34.22-2.34.15-2.99-.2Z"/>
      <path class="cls-1" d="M231.04,237.27c.35,2.14-.78,5.97-3.37,11.47-2.59,5.5-6.07,10.62-10.44,15.36-4.37,4.74-9.05,7.51-14.05,8.32-3.39.55-6.21-.03-8.46-1.73-2.25-1.7-3.64-4.24-4.19-7.64-.19-1.16-.25-2.11-.19-2.86-1.45,3.53-3.53,6.96-6.24,10.28-2.72,3.33-5.59,5.23-8.63,5.72-2.59.42-5.3-.2-8.13-1.85-2.83-1.65-4.69-3.5-5.57-5.56-.74-4-.92-8.69-.55-14.07.37-5.37,1.49-15.86,3.37-31.47.26-1.78.75-2.73,1.46-2.85s1.71.09,2.99.62c1.27.53,1.97,1.15,2.09,1.86.06.36.02.87-.1,1.53-.12.66-.2,1.18-.23,1.55-2.6,20.21-3.53,33.46-2.79,39.75.63,1.09,1.79,2.12,3.45,3.08,1.67.97,3.04,1.36,4.11,1.19,1.16-.19,2.66-1.14,4.49-2.86,1.83-1.71,3.65-4.34,5.46-7.89,1.81-3.54,3.29-8.02,4.43-13.43,1.33-6.54,2.46-15.97,3.4-28.31.02-1.01.43-1.58,1.24-1.71.71-.12,1.74.11,3.06.67,1.33.56,2.07,1.34,2.23,2.32.13.8-.01,2.48-.43,5.02-.41,2.54-.66,4.14-.74,4.79-1.13,6.6-1.96,12.39-2.48,17.37-.52,4.99-.48,9.35.12,13.1.94,5.81,3.41,8.38,7.43,7.73,2.59-.42,5.4-1.99,8.44-4.73,3.04-2.73,5.99-6.44,8.86-11.12,2.86-4.68,5.34-9.93,7.42-15.77,1.4.14,2.24.83,2.53,2.06Z"/>
      <path class="cls-1" d="M291.66,233.12c.17,1.07.12,2.04-.15,2.91-.27.87-.69,1.81-1.26,2.81-3.53,5.98-8.59,10.94-15.19,14.89-6.6,3.95-12.89,6.85-18.87,8.68-5.98,1.84-10.89,3.06-14.73,3.68-2.32.37-3.97.41-4.93.11-.97-.3-1.56-1.12-1.77-2.46-.12-.71-.1-1.49.03-2.34,2.57.04,4.35-.01,5.33-.17,4.46-.72,7.9-2.99,10.3-6.82,2.41-3.82,4.06-8.21,4.95-13.17.9-4.95,1.64-11.01,2.22-18.16.14-.85.26-2.1.35-3.77-.19-1.16-1.33-2.44-3.44-3.84-2.1-1.4-3.78-2-5.03-1.8-1.16.19-2.87,1.22-5.13,3.1-2.26,1.88-4.35,4.41-6.26,7.61-1.91,3.19-3.11,6.71-3.59,10.54-1.12,9.53-1.96,18.37-2.52,26.52-.56,8.15-1.11,17.68-1.64,28.57-1.13,22.54-2.35,41.06-3.67,55.56-.23,2.51-.75,4.45-1.53,5.81-.79,1.36-1.81,2.4-3.07,3.11-1.26.71-3.36,1.62-6.29,2.73-3.72,1.33-7.08,2.7-10.06,4.1l-1.58-.43c4.64-3.04,7.96-5.78,9.94-8.2,1.99-2.43,3.32-5.23,4-8.41.68-3.18,1.33-8.48,1.96-15.92,4.18-46.76,7.69-89.7,10.53-128.82.05-.83.23-1.43.53-1.8.3-.37.71-.69,1.22-.95.83-.5,1.83-1.14,2.99-1.93,1.16-.78,1.95-1.25,2.38-1.42.28.05.75.38,1.4,1.01-.08.65-.22,1.18-.43,1.58-.46,1.72-1.31,7.77-2.57,18.14-.37,2.81-.6,4.54-.67,5.19,1.96-3.16,4.45-6.08,7.45-8.76,3-2.68,5.48-4.18,7.45-4.5,1.61-.26,3.6.17,5.98,1.3,2.38,1.13,4.49,2.6,6.35,4.4,1.85,1.81,2.91,3.56,3.19,5.26l-.61,6.42c-.46,5.66-1,10.42-1.61,14.28-.61,3.86-1.81,7.67-3.58,11.43-1.78,3.77-4.28,6.97-7.52,9.6,5.15-1.56,9.67-3.39,13.54-5.49,3.87-2.09,7.71-5.02,11.5-8.8s7.6-8.81,11.44-15.11c1.47.59,2.35,1.82,2.66,3.69Z"/>
      <path class="cls-1" d="M352.47,223.3c.17,1.07.12,2.04-.15,2.91-.27.87-.69,1.81-1.26,2.81-3.53,5.98-8.59,10.94-15.19,14.89-6.6,3.95-12.89,6.85-18.87,8.68-5.98,1.84-10.89,3.06-14.73,3.68-2.32.38-3.97.41-4.93.11-.97-.3-1.56-1.12-1.77-2.46-.12-.71-.1-1.49.03-2.34,2.57.04,4.35-.01,5.33-.17,4.46-.72,7.9-2.99,10.31-6.82,2.41-3.82,4.05-8.21,4.95-13.17.89-4.95,1.64-11.01,2.22-18.16.14-.85.26-2.1.35-3.77-.19-1.16-1.33-2.44-3.44-3.84-2.1-1.4-3.78-2-5.03-1.8-1.16.19-2.87,1.22-5.13,3.1-2.26,1.88-4.35,4.41-6.26,7.61-1.91,3.19-3.11,6.71-3.59,10.54-1.12,9.53-1.96,18.37-2.52,26.52-.56,8.15-1.11,17.68-1.64,28.57-1.13,22.54-2.35,41.06-3.67,55.56-.23,2.51-.75,4.45-1.53,5.81-.79,1.36-1.81,2.4-3.07,3.11-1.26.71-3.36,1.62-6.29,2.73-3.72,1.33-7.08,2.7-10.06,4.1l-1.58-.43c4.64-3.04,7.96-5.78,9.94-8.2,1.99-2.43,3.33-5.23,4-8.41.68-3.18,1.33-8.48,1.96-15.92,4.18-46.76,7.69-89.7,10.53-128.82.05-.83.23-1.43.53-1.8.3-.37.71-.69,1.22-.95.83-.5,1.83-1.14,2.99-1.93,1.16-.78,1.95-1.25,2.38-1.42.28.05.75.38,1.4,1.01-.08.65-.22,1.18-.43,1.58-.46,1.72-1.31,7.77-2.57,18.14-.37,2.81-.6,4.54-.67,5.19,1.96-3.16,4.45-6.08,7.45-8.76,3-2.68,5.48-4.18,7.45-4.5,1.61-.26,3.6.17,5.98,1.3,2.38,1.13,4.49,2.6,6.35,4.4,1.85,1.81,2.91,3.56,3.19,5.26l-.61,6.42c-.46,5.66-1,10.42-1.61,14.28-.61,3.86-1.81,7.67-3.58,11.44-1.78,3.77-4.28,6.97-7.52,9.6,5.15-1.56,9.67-3.39,13.54-5.49,3.88-2.09,7.71-5.02,11.5-8.8,3.79-3.77,7.6-8.81,11.44-15.11,1.47.59,2.35,1.82,2.66,3.69Z"/>
      <path class="cls-1" d="M385.68,185.98c1.63.7,2.71,1.6,3.25,2.7-.5,3.75-.92,7.66-1.26,11.75-.2,1.59-.6,5.07-1.2,10.43-.6,5.37-1.46,11.94-2.59,19.73-2.54,17.18-5.45,31.64-8.73,43.39-3.28,11.75-8.68,22.13-16.21,31.13-7.53,9-17.8,14.56-30.84,16.66-6.52,1.05-12.12.95-16.82-.31-4.69-1.26-8.34-3.28-10.94-6.07-2.6-2.79-4.21-6.05-4.81-9.81-.2-1.25-.22-2.23-.06-2.94.16-.71.29-1.35.38-1.92,3.68,5.18,8.05,8.85,13.11,11.01,5.07,2.16,11.4,2.63,18.99,1.4,10.18-1.64,18.55-5.68,25.12-12.1,6.57-6.42,11.72-15.09,15.45-26,3.74-10.91,6.49-24.48,8.27-40.71-2.29,2.84-5.01,5.41-8.17,7.71-3.16,2.3-5.85,3.62-8.08,3.99-1.7.27-3.41,0-5.15-.82-1.74-.82-3.25-1.97-4.54-3.46-1.29-1.49-2.06-2.94-2.29-4.37.64-11.37,1.29-21.78,1.96-31.24.29-4.99.53-8.88.73-11.66.13-1.48.46-2.55,1-3.18.54-.64,1.48-1.06,2.82-1.28,1.16-.19,2.36-.15,3.59.11l-3.26,44.5c.22,1.34.98,2.5,2.28,3.48,1.3.98,2.63,1.36,3.96,1.15,1.96-.32,4.79-2.1,8.48-5.36,3.69-3.25,6.1-5.93,7.22-8.04,1.18-5.14,2.01-10.22,2.49-15.24.47-5.02.91-11.37,1.32-19.04l.34-6.38c1.16-.19,2.55.07,4.18.77Z"/>
    </g>
    <path class="cls-1" d="M380.25,396.15l-1.62-.08c-.38-1.39-.79-2.3-1.24-2.72-.45-.42-1.15-.71-2.09-.87-1.96-.29-5.23-.24-9.82.15-4.59.4-9.75,1.06-15.48,1.99-7.37,1.19-14.13,2.59-20.28,4.19-6.15,1.61-11.08,3.28-14.76,5.02-.52.08-1.21-.4-2.06-1.44-.86-1.04-1.35-1.98-1.48-2.8-.05-.3,0-.51.12-.65.13-.14.38-.27.74-.41,3.47-1.17,6.4-2.77,8.79-4.8,2.38-2.03,4.53-6.09,6.45-12.21,1.91-6.11,3.08-15,3.48-26.67.49-13.97.89-24.73,1.2-32.26.07-1,.23-1.76.49-2.26.26-.5.71-.92,1.34-1.25,1.8-1.13,4.15-2.18,7.05-3.14,2.9-.96,5.91-1.7,9.04-2.2.46,0,.94.38,1.44,1.14.5.76.9,1.55,1.19,2.39.29.83.37,1.33.24,1.51-.78-.1-1.96-.08-3.54.06-1.58.14-2.89.29-3.93.46-2.61.42-4.39,1.28-5.37,2.58-.97,1.3-1.52,2.99-1.64,5.08-.31,5.17-.54,10.13-.69,14.88-.42,9.23-.81,15.82-1.16,19.77-.75,9.05-2.07,16.29-3.94,21.71-1.87,5.42-4.71,9.58-8.52,12.48,2.36-.53,5.33-1.28,8.91-2.24,3.59-.96,6.41-1.68,8.47-2.17,5.99-1.66,10.95-2.97,14.88-3.95,3.93-.98,7.53-1.73,10.8-2.26,3.57-.58,6.14-.74,7.71-.5,1.57.24,2.63.93,3.2,2.06.6,1.35,1.3,4.49,2.09,9.4Z"/>
    <path class="cls-1" d="M449.23,355.92c.29,1.79-.65,4.97-2.81,9.56-2.16,4.59-5.06,8.85-8.7,12.8-3.64,3.95-7.54,6.26-11.71,6.93-2.83.46-5.18-.02-7.05-1.44-1.87-1.42-3.03-3.54-3.49-6.37-.16-.97-.21-1.76-.15-2.38-1.21,2.94-2.94,5.8-5.2,8.57-2.26,2.77-4.66,4.36-7.19,4.77-2.16.35-4.42-.16-6.78-1.54-2.36-1.37-3.91-2.92-4.64-4.63-.62-3.34-.77-7.24-.46-11.72.31-4.48,1.24-13.22,2.81-26.22.22-1.48.62-2.28,1.22-2.37s1.42.08,2.49.51c1.06.44,1.64.96,1.74,1.55.05.3.02.72-.08,1.27-.1.55-.17.98-.19,1.29-2.17,16.84-2.94,27.89-2.32,33.13.53.91,1.49,1.76,2.88,2.57,1.39.81,2.53,1.14,3.42.99.97-.16,2.21-.95,3.74-2.38,1.52-1.43,3.04-3.62,4.55-6.57,1.51-2.95,2.74-6.68,3.69-11.19,1.11-5.45,2.05-13.31,2.83-23.59.02-.84.36-1.32,1.03-1.43.6-.1,1.45.09,2.55.56,1.11.47,1.73,1.12,1.86,1.93.11.67-.01,2.06-.36,4.18-.34,2.12-.55,3.45-.61,3.99-.94,5.5-1.64,10.32-2.07,14.48-.44,4.16-.4,7.8.1,10.92.78,4.84,2.85,6.98,6.19,6.44,2.16-.35,4.5-1.66,7.04-3.94,2.53-2.28,4.99-5.37,7.38-9.27,2.39-3.9,4.45-8.28,6.18-13.14,1.16.12,1.87.69,2.11,1.72Z"/>
    <path class="cls-1" d="M474.27,329.96c2.4,1.64,3.92,4.43,4.56,8.37.49,3.05.23,6.02-.8,8.89-1.02,2.88-2.78,6.08-5.26,9.61-2.48,3.53-6.67,9.02-12.57,16.46-1.09,1.32-2.7,3.38-4.84,6.17l-4.58.74c.1-1.24.12-2.12.03-2.64l-4.82-29.11-.63-3.91c-.36-2.23-.76-3.64-1.2-4.22-.44-.58-1.33-.76-2.66-.54l-7.72,1.13c-.16-.97-.02-1.75.42-2.36,2.63-.73,4.57-1.37,5.82-1.91,1.25-.55,2.36-1.13,3.33-1.74.97-.61,1.77-1.12,2.39-1.53,1.81.32,3.06,1.22,3.76,2.71.7,1.49,1.26,3.54,1.68,6.14,1.08,6.7,2.03,13.3,2.86,19.81.18,1.12.71,4.89,1.6,11.31,7.05-10.22,11.74-17.85,14.06-22.88,2.32-5.03,3.22-9.15,2.7-12.35-.78-4.84-4-8.44-9.65-10.81l1.03-.74c1.74-.54,14.12.27,19.68-.05,10.09-.58,42.21,6.2,73.28,15.86.06.02-9.4,48.04-17.99,50.85,0,0,12.05-34.18,4.48-41.74-17.22-17.22-69.76-22.07-68.94-21.51Z"/>
  </g>
  <g>
    <path class="cls-2" d="M321.7,559.75c-7.8,1.03-26.67,2.55-26.08,2.08,1.72-1.37,5.81-3.57,5.81-3.57,1.63.85,14.47,1.03,17.02.84,2.55-.19,5.61-.8,6.3-.92,1.51-.27,2.81-.78,3.88-1.54,1.08-.76,1.96-1.98,2.66-3.66.7-1.68,1.14-3.96,1.33-6.84l.13-2.22c.15-4.31.38-7.85.69-10.64.33-.57.69-1.03,1.09-1.37.4-.34.92-.73,1.57-1.17l.37.06c-.48.95-.82,2.5-1.03,4.63-.21,2.14-.38,4.73-.51,7.79l-.14,2.62c-.53,7.92-3.73,12.4-9.6,13.44-1.1.19-2.24.31-3.49.47ZM320.26,544.03c-1.25-1.4-2.01-2.92-2.3-4.55-.28-1.58-.05-3.1.68-4.57.73-1.47,2.02-2.77,3.85-3.89,1.83-1.12,4.18-1.94,7.05-2.45,1.41-.25,2.69-.4,3.84-.44,1.15-.04,2.68-.06,4.59-.04,2.3.08,4.02.02,5.17-.19,1.15-.2,2.18-.58,3.09-1.14.91-.55,1.56-1.3,1.96-2.24-.06,1.31-.52,2.45-1.37,3.41-.85.96-2.18,1.6-3.98,1.92-.84.15-1.85.25-3.05.3-1.2.05-2.8.09-4.78.12-1.93.02-3.51.05-4.72.11-1.22.05-2.23.15-3.04.3-1.49.26-2.82.79-4,1.58-1.18.79-2.06,1.79-2.66,2.99-.59,1.2-.76,2.51-.51,3.93.26,1.47.94,2.74,2.05,3.8,1.1,1.06,2.67,2.08,4.7,3.05l-.12.22c-.55.1-.97.19-1.28.29-.31.09-.64.24-1.01.44-1.53-.57-2.91-1.55-4.16-2.96Z"/>
    <path class="cls-2" d="M348.98,553.25c-.86-.43-1.43-1.25-1.72-2.44.08-1.34.07-4.26-.02-8.77-.05-2.21-.08-3.54-.08-3.98.19-.65.59-1.05,1.18-1.2.38-.1.61-.01.67.25-.02.69-.02,1.78,0,3.27.02,1.49.05,2.66.06,3.51.09,3.38.12,5.56.09,6.53.15.6.43,1.01.86,1.25.43.24.92.29,1.49.15,1.29-.31,2.47-1.09,3.54-2.33,1.07-1.24,1.96-2.59,2.65-4.05.69-1.46,1.18-2.69,1.45-3.69.17.01.29.07.37.18s.16.3.23.58c.1.39.06.82-.09,1.3-.85,2.54-1.97,4.7-3.36,6.47s-2.95,2.87-4.68,3.29c-.9.22-1.78.11-2.64-.32Z"/>
    <path class="cls-2" d="M383.96,537.47c-.5,1.76-1.28,3.43-2.33,5-1.05,1.57-2.25,2.58-3.62,3.02-.96.31-1.85.26-2.66-.17-.82-.42-1.43-1.27-1.84-2.53-.34-1.04-.55-2.27-.63-3.69-.08-1.42-.13-3.12-.13-5.11.02-.54.02-1.1,0-1.68-.03-.08-.1-.13-.22-.16-.12-.03-.23-.03-.33,0-.33.11-.82.79-1.48,2.06-.66,1.27-1.29,2.68-1.89,4.23-.6,1.55-.96,2.7-1.08,3.44,0,.87.12,2.65.36,5.35.04.46.05.78.04.95-.01.17-.1.28-.25.33-.23.07-.53.02-.91-.17-.38-.18-.62-.42-.71-.7s-.16-.93-.21-1.95c-.21-4.25-.45-7.91-.72-10.99-.22-.15-.44-.19-.67-.12-.38.12-.87.8-1.47,2.03-.6,1.23-1.16,2.73-1.68,4.48-.52,1.75-.87,3.43-1.04,5.03.02,1.37.15,2.91.37,4.63-.25.08-.61.1-1.07.05-.46-.05-.72-.16-.78-.34-.07-.2-.13-.81-.18-1.83l-.87-13.64c-.02-.25-.01-.43.03-.56.04-.13.14-.21.29-.26.15-.05.43-.06.85-.02.41.03.69.09.82.15l.05,1.33c.02.33.06,1.01.1,2.05.04,1.04.12,2.1.22,3.19.34-1.62.78-3.02,1.33-4.2.55-1.17,1.11-2.09,1.68-2.73.57-.65,1.04-1.03,1.42-1.15.28-.09.68-.05,1.21.11s.82.35.89.55c.23,1.47.41,3.15.55,5.04.57-1.76,1.35-3.57,2.33-5.44.98-1.87,1.85-2.93,2.6-3.18.35-.11.78-.1,1.27.05.49.15.82.41.96.78,0,2.77.05,5.04.14,6.81.09,1.77.34,3.3.76,4.59.25.76.55,1.27.91,1.53.36.26.87.28,1.53.07,1.54-.5,2.75-1.82,3.64-3.98.89-2.15,1.34-4.49,1.36-7.02.28-.09.55-.04.82.15.27.19.46.45.57.78.28.78.17,2.05-.33,3.81Z"/>
    <path class="cls-2" d="M404.06,530.01c-1.34,1.1-1.2,3.23-2.24,4.67-1.04,1.44-2.15,2.41-3.32,2.91-.95.4-1.81.42-2.57.05-.76-.37-1.39-1-1.88-1.89-.23,1.14-.69,2.19-1.38,3.15-.69.96-1.39,1.59-2.13,1.9-.63.27-1.35.32-2.16.16-.8-.16-1.53-.48-2.19-.94-.66-.46-1.12-.97-1.38-1.52l-1.37-8.2c-.1-.65,0-1.44.31-2.37.31-.93.8-1.79,1.46-2.6.67-.8,1.44-1.39,2.31-1.77,1.12-.48,2.27-.52,3.45-.12-.03-.68-.02-1.12.02-1.31.05-.19.18-.35.38-.47l1.71-.95.14.03c-.32.6-.41,1.36-.28,2.29.45,3.17.83,5.49,1.12,6.95.29,1.47.66,2.72,1.1,3.75.44,1.03.89,1.73,1.37,2.09.47.36,1.02.41,1.66.14.78-.33,1.58-1.05,2.39-2.15.81-1.1,1.46-2.43,1.95-3.98l1.51.16ZM391.28,537.92c.47-.55.85-1.21,1.14-1.98.29-.77.38-1.56.27-2.35l-.59-3.31c-.11-.53-.28-1.4-.5-2.59-.22-1.2-.38-2.12-.49-2.77-.97-.4-1.95-.39-2.92.03-.76.32-1.35.81-1.79,1.48-.44.66-.73,1.37-.87,2.11-.15.74-.17,1.35-.08,1.84l1.32,7.17c.31.59.79,1.04,1.44,1.35.65.3,1.23.35,1.74.13.41-.18.86-.54,1.33-1.09Z"/>
    <path class="cls-2" d="M454.58,487.75c.41.53.62,1.23.63,2.12.01.88-.2,1.78-.65,2.7-.45.92-1.1,1.71-1.96,2.37-1.15.89-2.41,1.36-3.78,1.4.35.71.67,1.45.97,2.23.12.28.39.92.83,1.92s.86,1.85,1.28,2.57c.11.45.1,1.04-.04,1.77-.14.73-.41,1.47-.8,2.21-.4.74-.89,1.34-1.47,1.8-.65.5-1.41.82-2.28.95-.87.13-1.72.06-2.54-.21-.83-.27-1.51-.75-2.05-1.45-.39-1.11-.79-2.13-1.21-3.06s-.85-1.86-1.3-2.79l-.91-1.83c-.27-.57-.36-1.27-.26-2.1s.36-1.65.78-2.47c.42-.82.97-1.48,1.64-2,.25-.19.64-.43,1.17-.7-.31-.53-.46-.96-.45-1.27.01-.31.19-.6.55-.88.21-.16.47-.32.8-.46.35.67.69,1.22,1.02,1.64.95,1.22,2.11,1.98,3.5,2.25,1.39.28,2.71-.07,3.97-1.04.94-.73,1.56-1.61,1.85-2.64.29-1.03.27-2.18-.07-3.43.26-.1.53.03.8.39ZM448.59,500.16c-.67-1.74-1.28-3.09-1.82-4.05-.92-.24-1.79-.71-2.61-1.43-.06-.08-.13-.14-.21-.17-.07-.03-.17-.01-.29.05-.41.12-.82.33-1.22.63-.78.6-1.28,1.33-1.53,2.19-.24.86-.21,1.64.1,2.35.13.3.67,1.47,1.6,3.51.59,1.16,1.14,2.34,1.63,3.54.6.78,1.33,1.19,2.19,1.21.86.03,1.58-.18,2.17-.64.5-.39.9-.98,1.21-1.79.3-.8.39-1.46.26-1.97-.48-.97-.98-2.12-1.5-3.44Z"/>
    <path class="cls-2" d="M442.85,506.34c.12.18.19.35.21.53.02.18.03.42,0,.72-.11,1.07-.44,2.29-1.01,3.65-.57,1.36-1.26,2.63-2.1,3.81-.84,1.18-1.67,2.05-2.5,2.61-.94.64-1.93.88-2.95.71-1.02-.16-1.93-.83-2.72-2-1-1.48-2.36-4.62-4.07-9.42l-8.49,5.77c-.06,0-.15.01-.26,0-.11,0-.2-.02-.25-.05,0-.15-.04-.46-.09-.91-.05-.45-.05-.79-.01-1.01l8.5-5.54c-1.1-3.18-2.14-6.52-3.12-10.01.19-.58.46-1.25.83-2.03.37-.78.62-1.21.75-1.3.26-.04.46,0,.61.12-.29.42-.46.84-.51,1.24-.05.4.01.97.18,1.69.47,2.06,1.43,5.14,2.87,9.21l8.42-5.64.39.51c.12.18.17.32.15.43-.02.11-.14.26-.37.44-.29.23-2.96,2.2-8.01,5.9,1.8,4.84,3.17,7.95,4.11,9.34.52.77,1.09,1.22,1.71,1.33.62.11,1.31-.09,2.08-.61,2.24-1.51,3.93-4.83,5.07-9.95.21.08.4.23.55.45Z"/>
    <path class="cls-2" d="M463.32,483.78c.4.68.77,1.4,1.13,2.16.14.27.46.89.96,1.85.5.96.99,1.79,1.46,2.47.15.44.18,1.03.09,1.77-.09.74-.3,1.49-.64,2.26-.34.77-.79,1.4-1.34,1.9-.61.55-1.35.92-2.2,1.11-.86.19-1.71.19-2.55-.02-.85-.21-1.56-.64-2.15-1.3-.47-1.08-.94-2.07-1.42-2.97-.48-.89-.98-1.79-1.5-2.69l-1.04-1.76c-.31-.55-.45-1.24-.41-2.07.04-.84.24-1.68.6-2.52.36-.84.86-1.55,1.49-2.11.24-.21.61-.47,1.11-.78-.35-.51-.53-.92-.54-1.23-.01-.31.15-.62.49-.92.2-.18.45-.35.76-.52.4.65.78,1.17,1.13,1.56,1.03,1.15,2.25,1.82,3.65,2,.67.08,6.65.51,13.16-4.82,4.01-3.28,20.18-19.84,36.28-44.08,18.86-28.39,32.68-66.86,32.68-66.86.88,1.12,1.49,15.13,1.68,19.24-6.54,16.25-13.63,29.14-17.93,36.98-11.94,21.81-30.63,44.82-48.09,58.27-7.42,5.72-15.5,2.93-16.86,3.07ZM463.37,487.59c-.8-1.69-1.5-2.99-2.11-3.91-.93-.17-1.83-.58-2.7-1.23-.07-.08-.14-.13-.22-.15-.07-.02-.17,0-.29.07-.4.15-.79.39-1.17.72-.73.65-1.18,1.42-1.36,2.29-.18.88-.09,1.65.27,2.33.15.29.77,1.42,1.85,3.39.68,1.11,1.3,2.25,1.88,3.42.66.74,1.42,1.09,2.27,1.05.86-.03,1.56-.3,2.12-.79.47-.42.83-1.05,1.07-1.87s.28-1.48.12-1.98c-.55-.94-1.13-2.04-1.74-3.32Z"/>
    <path class="cls-2" d="M402.51,529.89c.49-1.56,1.2-7.35,1.11-8.99.23-.1,3.75-2.52,8.3-5.5,1.21-.79,5.7-3.92,7.24-4.97,0,0,0,1.93.42,2.03.19.05-10.21,7.91-10.88,8.86-1.54,2.18-3.73,7.96-4.67,8.73l-1.51-.16Z"/>
    <path class="cls-2" d="M346.84,534.78c-.34-.25-.58-.63-.7-1.13-.16-.67-.1-1.33.2-1.99s.78-1.07,1.44-1.23c.53-.13.96-.06,1.29.21.33.27.55.64.67,1.11.17.67.09,1.33-.22,1.99-.31.66-.8,1.07-1.47,1.24-.47.11-.87.04-1.21-.21Z"/>
  </g>
</svg>