<?xml version="1.0" encoding="UTF-8"?>
<svg id="yelp" xmlns="http://www.w3.org/2000/svg" viewBox="0 0 987.56 1316.38">
  <defs>
    <style>
      .cls-1 {
        fill: #f8991d;
      }
    </style>
  </defs>
  <path class="cls-1" d="M416.22,1303.62c-60.37-23.72-120.7-47.55-181.14-71.09-24.43-9.52-40.46-25.43-42.69-52.71-1.34-16.48,4.13-30.75,14.43-43.31,58.69-71.55,117.28-143.17,176.23-214.5,18.97-22.95,43.7-29.66,69.1-20.24,25.6,9.49,40.21,31.62,39.47,61.61-2.27,92.94-4.82,185.87-7.4,278.81-.92,33.27-19.37,52.51-50.24,61.45h-17.77Z"/>
  <path class="cls-1" d="M499.76,558.45c.56,40.51-17.65,65.33-52.95,75.69-30.78,9.03-62.51-3.86-79.94-33.99-82.95-143.33-165.81-286.7-248.17-430.37-25.34-44.21-5.71-90.88,43.47-104.7,69.48-19.52,139.09-38.63,208.86-57.1,48.75-12.91,87.42,17.09,90.88,67.22,5.62,81.37,12.68,162.64,19.08,243.96,5.44,69.1,10.81,138.21,16.22,207.31.92,11.8,1.87,23.59,2.54,31.97Z"/>
  <path class="cls-1" d="M580.65,673.31c5.27-12.11,8.51-25.7,16.12-36.08,55.45-75.66,111.47-150.91,167.98-225.79,27.88-36.93,73.94-35.24,99.69,3.23,33.36,49.85,66.26,100.02,98.85,150.37,25.22,38.96,9.16,81.15-35.41,93.53-87.81,24.41-175.67,48.63-263.59,72.62-42.84,11.69-80.49-14.99-83.65-57.89Z"/>
  <path class="cls-1" d="M978.23,987.19c-5.46,12.02-9.05,25.41-16.68,35.84-35.67,48.77-72.12,96.98-108.96,144.89-27.62,35.93-72.23,35.53-98.32-1.19-53.83-75.78-107.31-151.81-160.08-228.34-27.22-39.48-4.08-90.1,42.8-95.16,8.5-.92,17.78.83,26.09,3.34,89.25,27.02,178.41,54.33,267.51,81.83,28.79,8.88,45.11,30.41,47.64,58.78Z"/>
  <path class="cls-1" d="M10.19,663.83c1.11-44.82,38.17-70.64,80.65-55.66,87.17,30.74,174.1,62.17,261.01,93.64,28.07,10.17,42.43,30.78,42.12,58.27-.3,27.14-15.55,47.97-43.61,57.25-88.56,29.29-177.15,58.47-265.94,87.01-45.4,14.59-81.58-13.93-80.38-61.78.74-29.35,4.01-59.42,3.82-89.04,0-5.74,1.59-59.71,2.34-89.69Z"/>
</svg>