<?xml version="1.0" encoding="UTF-8"?>
<svg id="favicon" xmlns="http://www.w3.org/2000/svg" viewBox="0 0 565.97 561.92">
  <defs>
    <style>
      .cls-1 {
        fill: #fff;
      }

      .cls-2 {
        fill: #cb9831;
      }
    </style>
  </defs>
  <g id="Layer_20">
    <circle class="cls-2" cx="282.56" cy="281.86" r="276.53"/>
  </g>
  <path class="cls-1" d="M163.75,399.76c-2.16-.89-3.54-3.26-4.17-7.13-1.95-12.06,2.4-55.08,13.04-129.08,3.23-24.03,6.08-46.65,8.54-67.83,2.45-21.19,3.28-34.31,2.46-39.38-.39-2.41-1.33-3.93-2.82-4.56-1.49-.62-4.05-.65-7.67-.06-3.62.58-13.76,2.96-30.41,7.14-24.08,6.12-40.12,10.83-48.33,11.15-17.28.68-66.64-9.55-66.64-9.55,5.04-5.04,19.61-31.38,25.49-39.78,3.14-4.48-13.45,58.27,72,32.22,19.87-6.06,42.56-14.05,76.48-22.49,28.56-7.08,47.97-11.46,58.23-13.11,30.76-4.97,55.93-3.34,75.52,4.88,19.58,8.22,31.21,23.67,34.87,46.34,2.49,15.44.42,30.38-6.22,44.81-6.65,14.44-18.45,27.05-35.43,37.84-16.98,10.79-39.04,18.37-66.19,22.75-14.48,2.34-25.82,3-34.03,1.97-8.22-1.02-12.67-3.71-13.37-8.05-.43-2.65.44-4.9,2.63-6.74,3.78.38,9.65.36,17.63-.06,7.97-.42,15.88-1.26,23.73-2.53,19-3.07,35.41-8.75,49.24-17.05,13.82-8.29,23.88-18.34,30.18-30.12,6.29-11.78,8.36-24.43,6.18-37.94-2.84-17.61-12.11-29.42-27.77-35.43-15.67-6.01-38.14-6.65-67.38-1.93-14.78,2.39-25.25,5.13-31.4,8.23-6.16,3.1-9.76,7.09-10.83,11.96-1.97,7-5,27.97-9.1,62.91-4.1,34.95-7.47,69.21-10.09,102.8-2.63,33.59-3.17,55.09-1.65,64.49.58,3.62,1.71,6.78,3.39,9.48-4.67,1.74-10.02,3.1-16.05,4.08-4.52.73-7.87.65-10.02-.24Z"/>
  <path class="cls-1" d="M513.02,441.07l-6.06.03c-1.2-3.84-2.61-6.31-4.23-7.43-1.63-1.12-4.2-1.82-7.71-2.1-7.31-.51-19.63.15-36.96,1.99-17.33,1.85-36.84,4.52-58.53,8.02-27.89,4.5-53.52,9.49-76.92,14.97-23.39,5.48-42.16,10.94-56.31,16.41-1.97.32-4.48-.92-7.53-3.71-3.05-2.79-4.76-5.33-5.13-7.6-.13-.82.06-1.44.57-1.84.52-.4,1.46-.82,2.83-1.25,13.25-3.84,24.52-8.78,33.8-14.84,9.28-6.06,18-17.8,26.17-35.24,8.17-17.43,13.94-42.54,17.32-75.33,4.06-39.25,7.27-69.46,9.64-90.63.41-2.82,1.15-4.96,2.22-6.4,1.07-1.44,2.82-2.68,5.25-3.71,6.96-3.46,15.96-6.76,27.01-9.93,11.04-3.16,22.49-5.7,34.32-7.61,1.72-.06,3.47.93,5.25,2.97,1.77,2.05,3.13,4.22,4.08,6.5.95,2.29,1.17,3.68.68,4.18-2.92-.16-7.36.08-13.32.72-5.96.64-10.92,1.28-14.86,1.92-9.86,1.59-16.72,4.29-20.58,8.1-3.87,3.81-6.19,8.64-6.98,14.49-1.99,14.53-3.64,28.48-4.95,41.84-3.04,25.94-5.54,44.48-7.49,55.61-4.27,25.5-10.35,46-18.25,61.48-7.9,15.49-19.25,27.6-34.01,36.35,8.94-1.87,20.24-4.43,33.87-7.7,13.63-3.26,24.36-5.73,32.18-7.42,22.79-5.59,41.65-10.07,56.57-13.43,14.91-3.36,28.57-6.05,40.97-8.05,13.52-2.18,23.2-3.05,29.05-2.62,5.85.44,9.74,2.19,11.69,5.27,2.04,3.7,4.17,12.37,6.37,26.01Z"/>
</svg>